# xmcd
#
# Track frame offsets:
#	150
#	2581
#	13267
#	14409
#	24043
#	29493
#
# Disc length: 633 seconds
#
# Revision: 0
# Processed by: cddbd v1.4PL0 Copyright (c) Steve Scherf et al.
# Submitted via: EasyCDDAExtractor 4.6.0.1
#
DISCID=37027706
DTITLE=Duffeysome - Funny Hats Demo
DYEAR=2001
DGENRE=Punk Rock
TTITLE0=SCP
TTITLE1=The Runaround
TTITLE2=Newt Named Goat
TTITLE3=We Don't Know
TTITLE4=Run the Cable
TTITLE5=Prick
EXTD=
EXTT0=
EXTT1=
EXTT2=
EXTT3=
EXTT4=
EXTT5=
PLAYORDER=
